<svg xmlns="http://www.w3.org/2000/svg" width="715.039" height="480.215" viewBox="0 0 715.039 480.215"><defs><style>.a{fill:#5e66f9;}.b,.c,.g,.h,.i,.l{fill:none;}.b,.c{stroke:#0083c4;}.b,.g,.h{stroke-miterlimit:10;}.b,.c,.h,.i{stroke-width:3px;}.c,.i{stroke-linecap:round;stroke-linejoin:round;}.d{fill:#00d4d4;}.e{fill:#fff;}.f{fill:#0083c4;}.g{stroke:#fff;}.h{stroke:#5e66f9;}.i{stroke:#00d4d4;}.j{opacity:0.52;}.k{stroke:none;}</style></defs><g transform="translate(434.302 206.366)"><path class="a" d="M1220.6,487.6s-18.237-.246-21.511,9.6c-.656,1.971,15.448-2.2,15.448-2.2Z" transform="translate(-1133.617 -484.855)"/><path class="b" d="M1161.756,587a20.416,20.416,0,0,0-6.266,14.742c0,7.068,4.1,14.681,9.549,18.36" transform="translate(-1116.032 -524.969)"/><path class="c" d="M1170.027,560.927s-16.835-12.827-13.361-32.6,14.163-24.317,25.119-25.92,15.15-1.906,15.15-1.906-1.193,2.982-.6,10.736c.233,3.032,2.386,11.929,2.386,11.929s-18.49,3.579-24.454,14.315C1170.782,543.758,1170.027,560.927,1170.027,560.927Z" transform="translate(-1116.316 -490.062)"/><path class="b" d="M1203.479,516.721s-9.5-25.386,5.735-31.532,49.97,1.336,63.6,13.9,16.3,39.816,13.628,57.185,6.948,42.755,6.413,59.857-39.312,13.3-66.152,13.3c-29.3,0-53.829.06-58.1-24.525-2.649-15.23,2.617-32.943,6.214-42.874" transform="translate(-1121.031 -483)"/><path class="a" d="M1295.713,542.435s.24-20.052-3.273-32.6a52.03,52.03,0,0,0-17.655-26.019,76.736,76.736,0,0,1,16.051,1.969c7.219,1.593,12.248,9.51,12.248,9.51s5.923,9.195,6.458,24.159.534,24.478.534,24.478Z" transform="translate(-1164.173 -483.329)"/><path class="b" d="M1243.9,684.892h47.7v-64.6s-9.169,28.754-24.08,37.1c-9.819,5.5-22.665,5.964-22.665,5.964Z" transform="translate(-1151.71 -538.404)"/><path class="b" d="M1208.123,539.536h0a28.737,28.737,0,0,0-28.737,28.737V589.64a41.019,41.019,0,0,0,41.018,41.018h0a41.018,41.018,0,0,0,41.018-41.018V567.06s-27.256-4.008-41.018-12.292C1214.844,551.421,1210.877,545.456,1208.123,539.536Z" transform="translate(-1125.675 -505.815)"/><circle class="a" cx="18.572" cy="18.572" r="18.572" transform="translate(118.378 58.305)"/><path class="b" d="M1181.526,728.6s-35.273,4.164-49.168,20.654-43.022,105.207-43.022,105.207H1278.26s3.206-81.77-3.741-98.337-45.294-27.524-45.294-27.524Z" transform="translate(-1089.335 -582.112)"/><line class="b" x1="9.055" y2="53.762" transform="translate(41.85 178.554)"/><path class="b" d="M1165.625,883.326s-16.463-12.65-29.661-11.624-22.463,27.292-22.463,27.292l57.855,1.193Z" transform="translate(-1099.087 -639.838)"/><path class="b" d="M1211.375,868.327l-10.484-28.86h73.352l5.011-59.857s5.053-18.55,26.944-16.49" transform="translate(-1134.354 -595.978)"/><path class="b" d="M1323.872,891.231s19.507,5.344,27.056,14.964" transform="translate(-1183.983 -647.742)"/></g><g transform="translate(156.433 167.743)"><path class="d" d="M648.81,507.977a.9.9,0,0,1-.821-.717l-24.481-87.615a1.255,1.255,0,0,1,.115-.958.832.832,0,0,1,.706-.443h67.425a1.08,1.08,0,0,1,0,2.117H625.541l24.09,86.214a1.128,1.128,0,0,1-.54,1.344A.734.734,0,0,1,648.81,507.977Z" transform="translate(-623.462 -418.244)"/></g><g transform="translate(169.667 212.29)"><path class="d" d="M714.027,494.665H646.518a.867.867,0,1,1,0-1.734h67.508a.867.867,0,0,1,0,1.734Z" transform="translate(-645.651 -492.931)"/></g><g transform="translate(35.795 265.667)"><path class="d" d="M648.329,693.246H463.958L421.2,582.423h184.37Z" transform="translate(-421.202 -582.423)"/></g><g transform="translate(20.936 255.741)"><path class="d" d="M622.7,678.132H438.329a.763.763,0,0,1-.712-.488L396.341,570.655a.763.763,0,0,1,1.424-.549l41.088,106.5H621.587l-42.167-109.3H475.965a.763.763,0,0,1,0-1.527H579.944a.763.763,0,0,1,.712.489l42.756,110.824a.763.763,0,0,1-.712,1.038Z" transform="translate(-396.29 -565.781)"/></g><g transform="translate(69.863 295.919)"><path class="e" d="M617.035,634.878H479.188a.867.867,0,0,1,0-1.734H617.035a.867.867,0,1,1,0,1.734Z" transform="translate(-478.321 -633.144)"/></g><g transform="translate(73.332 321.308)"><path class="e" d="M622.85,677.446H485a.867.867,0,0,1,0-1.734H622.85a.867.867,0,0,1,0,1.734Z" transform="translate(-484.136 -675.711)"/></g><g transform="translate(277.053 171.49)"><path class="d" d="M888.928,426.26H826.56a.867.867,0,0,1,0-1.734h62.368a.867.867,0,1,1,0,1.734Z" transform="translate(-825.693 -424.526)"/></g><g transform="translate(288.013 205.144)"><path class="d" d="M893.43,482.685h-48.5a.867.867,0,0,1,0-1.734h48.5a.867.867,0,0,1,0,1.734Z" transform="translate(-844.068 -480.951)"/></g><g transform="translate(291.481 213.635)"><path class="d" d="M913.119,496.921H850.75a.867.867,0,0,1,0-1.734h62.369a.867.867,0,0,1,0,1.734Z" transform="translate(-849.883 -495.187)"/></g><g transform="translate(65.128 11.473)"><g transform="translate(0 162.766)"><path class="f" d="M471.249,436.956a.853.853,0,0,1-.376-.087.866.866,0,0,1-.4-1.157c.044-.091,1.1-2.27,3.356-6.146a.867.867,0,1,1,1.5.873c-2.218,3.81-3.282,6-3.293,6.026A.866.866,0,0,1,471.249,436.956Z" transform="translate(-470.382 -429.135)"/></g><g transform="translate(10.806 0)"><path class="f" d="M489.365,308.916a.867.867,0,0,1-.717-1.354c2.559-3.768,5.323-7.605,8.215-11.4a.867.867,0,1,1,1.38,1.05c-2.874,3.774-5.619,7.584-8.16,11.327A.866.866,0,0,1,489.365,308.916Zm16.948-22.292a.867.867,0,0,1-.663-1.426c2.977-3.535,6.1-7.077,9.292-10.529a.867.867,0,0,1,1.274,1.177c-3.171,3.433-6.28,6.955-9.24,10.469A.865.865,0,0,1,506.312,286.624Zm238.542-.737a.867.867,0,0,1-.017-1.734c4.374-.085,9.056-.341,13.918-.758a.867.867,0,1,1,.149,1.727c-4.9.421-9.621.678-14.033.764Zm-13.985-.353-.068,0A85.483,85.483,0,0,1,716.84,283.4a.867.867,0,1,1,.42-1.683,83.779,83.779,0,0,0,13.675,2.089.867.867,0,0,1-.066,1.731Zm41.868-1.978a.867.867,0,0,1-.122-1.726c4.618-.662,9.231-1.494,13.711-2.472a.867.867,0,0,1,.37,1.694c-4.52.987-9.175,1.826-13.835,2.494A.871.871,0,0,1,772.738,283.556Zm-68.421-5.7a.867.867,0,0,1-.528-.18c-3.618-2.787-5.53-6.257-5.53-10.032a12.351,12.351,0,0,1,.4-3.054.867.867,0,1,1,1.68.429,10.647,10.647,0,0,0-.342,2.626c0,3.264,1.633,6.177,4.855,8.659a.867.867,0,0,1-.53,1.554Zm95.744-.284a.867.867,0,0,1-.249-1.7c4.481-1.345,8.91-2.872,13.163-4.54a.867.867,0,0,1,.632,1.615c-4.3,1.684-8.77,3.227-13.3,4.586A.863.863,0,0,1,800.061,277.572Zm26.023-10.236a.867.867,0,0,1-.388-1.643c4.214-2.1,8.3-4.387,12.134-6.8a.867.867,0,1,1,.922,1.468c-3.886,2.44-8.019,4.755-12.282,6.881A.863.863,0,0,1,826.084,267.336Zm-300.778-1.281a.867.867,0,0,1-.61-1.483c3.3-3.265,6.721-6.516,10.183-9.664a.867.867,0,0,1,1.167,1.284c-3.443,3.13-6.851,6.364-10.129,9.612A.865.865,0,0,1,525.306,266.055Zm410.922-1.075a.866.866,0,0,1-.348-.073c-4.281-1.875-8.615-3.7-12.88-5.412a.867.867,0,0,1,.648-1.609c4.281,1.724,8.631,3.551,12.929,5.432a.867.867,0,0,1-.348,1.662ZM910.26,254.534a.861.861,0,0,1-.3-.053c-4.385-1.607-8.823-3.152-13.192-4.591a.867.867,0,0,1,.543-1.647c4.387,1.445,8.844,3,13.247,4.61a.867.867,0,0,1-.3,1.681Zm-202.793-.09a.867.867,0,0,1-.565-1.525,61.553,61.553,0,0,1,11.85-7.765.867.867,0,0,1,.8,1.541,59.865,59.865,0,0,0-11.516,7.539A.865.865,0,0,1,707.467,254.444Zm142.251-2.023a.867.867,0,0,1-.541-1.545,104.844,104.844,0,0,0,10.275-9.322.867.867,0,1,1,1.251,1.2,106.738,106.738,0,0,1-10.445,9.476A.861.861,0,0,1,849.718,252.421Zm-303.7-5.2a.868.868,0,0,1-.557-1.533c3.564-2.979,7.249-5.931,10.951-8.776a.867.867,0,1,1,1.057,1.375c-3.684,2.831-7.35,5.769-10.9,8.732A.866.866,0,0,1,546.015,247.218Zm337.658-1.436a.861.861,0,0,1-.243-.035c-4.486-1.307-9.021-2.541-13.476-3.665a.867.867,0,0,1,.424-1.681c4.476,1.129,9.031,2.367,13.538,3.681a.867.867,0,0,1-.242,1.7ZM732.017,241.31a.867.867,0,0,1-.288-1.685c4.225-1.486,8.77-2.822,13.509-3.971a.867.867,0,0,1,.409,1.686c-4.683,1.135-9.172,2.454-13.342,3.921A.867.867,0,0,1,732.017,241.31Zm124.515-2.364a.9.9,0,0,1-.181-.019c-4.577-.969-9.191-1.848-13.714-2.613a.867.867,0,0,1,.289-1.71c4.546.769,9.184,1.653,13.784,2.626a.867.867,0,0,1-.178,1.716Zm-97.364-4.309a.867.867,0,0,1-.134-1.724c4.5-.713,9.2-1.288,13.951-1.708a.867.867,0,1,1,.153,1.727c-4.715.417-9.37.987-13.833,1.694A.879.879,0,0,1,759.167,234.636Zm69.767-.348a.821.821,0,0,1-.108-.007c-4.652-.58-9.324-1.054-13.885-1.408a.867.867,0,0,1,.134-1.729c4.589.357,9.288.833,13.966,1.417a.867.867,0,0,1-.107,1.728Zm40-2.086a.868.868,0,0,1-.716-1.357,62.37,62.37,0,0,0,6.533-12.125.867.867,0,1,1,1.612.639,64.145,64.145,0,0,1-6.713,12.464A.866.866,0,0,1,868.931,232.2Zm-67.9-.065h-.024c-4.7-.128-9.392-.129-13.95,0a.867.867,0,0,1-.047-1.734c2.27-.062,4.589-.094,6.892-.094,2.353,0,4.759.033,7.152.1a.867.867,0,0,1-.023,1.734ZM568.208,230.16a.867.867,0,0,1-.5-1.575c3.792-2.679,7.7-5.325,11.618-7.867a.867.867,0,1,1,.943,1.455c-3.9,2.53-7.788,5.163-11.561,7.829A.862.862,0,0,1,568.208,230.16Zm23.477-15.236a.867.867,0,0,1-.444-1.613c3.986-2.372,8.087-4.708,12.19-6.943a.867.867,0,1,1,.83,1.523c-4.084,2.225-8.166,4.55-12.133,6.911A.867.867,0,0,1,591.686,214.924Zm287.064-8.576-.06,0a.866.866,0,0,1-.806-.924c.059-.85.088-1.7.088-2.539a33.586,33.586,0,0,0-1.782-10.9.867.867,0,0,1,1.641-.561,35.328,35.328,0,0,1,1.875,11.465c0,.874-.03,1.768-.091,2.657A.868.868,0,0,1,878.749,206.348Zm-262.49-4.816a.867.867,0,0,1-.387-1.644c4.15-2.064,8.413-4.089,12.67-6.017a.867.867,0,0,1,.715,1.58c-4.238,1.919-8.482,3.935-12.613,5.99A.858.858,0,0,1,616.259,201.532Zm25.49-11.548a.867.867,0,0,1-.33-1.669c4.287-1.761,8.682-3.477,13.064-5.1a.867.867,0,0,1,.6,1.626c-4.363,1.618-8.739,3.326-13.008,5.079A.856.856,0,0,1,641.75,189.983ZM869.96,180.6a.864.864,0,0,1-.651-.293,46.992,46.992,0,0,0-10.534-8.73.867.867,0,1,1,.914-1.474,48.689,48.689,0,0,1,10.92,9.056.867.867,0,0,1-.649,1.44Zm-201.974-.347a.867.867,0,0,1-.273-1.69c4.4-1.463,8.9-2.879,13.375-4.209a.867.867,0,0,1,.493,1.663c-4.461,1.324-8.944,2.734-13.321,4.191A.867.867,0,0,1,667.986,180.251Zm26.825-7.966a.867.867,0,0,1-.22-1.706c4.475-1.174,9.055-2.3,13.615-3.348a.867.867,0,1,1,.388,1.69c-4.542,1.043-9.105,2.166-13.562,3.335A.887.887,0,0,1,694.811,172.286Zm27.271-6.269a.867.867,0,0,1-.168-1.718c4.54-.9,9.179-1.752,13.791-2.528a.867.867,0,0,1,.288,1.71c-4.595.774-9.218,1.622-13.741,2.519A.874.874,0,0,1,722.083,166.017Zm124.572-.384a.864.864,0,0,1-.3-.055,102.265,102.265,0,0,0-13.3-3.9.867.867,0,1,1,.38-1.692,104.158,104.158,0,0,1,13.529,3.967.867.867,0,0,1-.3,1.68Zm-96.972-4.27a.867.867,0,0,1-.117-1.726c4.728-.655,9.412-1.224,13.925-1.69a.867.867,0,1,1,.178,1.725c-4.492.463-9.158,1.029-13.866,1.683A.919.919,0,0,1,749.683,161.363Zm69.769-2.015a.9.9,0,0,1-.106-.006c-4.4-.539-9.065-.925-13.878-1.149a.867.867,0,1,1,.08-1.732c4.856.225,9.569.616,14.008,1.159a.867.867,0,0,1-.1,1.728Zm-41.923-.831a.867.867,0,0,1-.053-1.733c4.8-.3,9.517-.48,14.029-.54h.011a.867.867,0,0,1,.011,1.734c-4.483.06-9.174.24-13.944.537Z" transform="translate(-488.499 -156.244)"/></g><g transform="translate(470.625 112.901)"><path class="f" d="M1266.545,350.277a.859.859,0,0,1-.38-.088c-2.073-1.015-4.172-2.026-6.24-3a.867.867,0,0,1,.741-1.568c2.076.982,4.182,2,6.262,3.014a.867.867,0,0,1-.382,1.646Z" transform="translate(-1259.428 -345.533)"/></g></g><g transform="translate(273.585 162.999)"><path class="d" d="M869.24,412.025H820.745a.867.867,0,1,1,0-1.734H869.24a.867.867,0,1,1,0,1.734Z" transform="translate(-819.878 -410.291)"/></g><g transform="translate(447.112 465.057)"><path class="f" d="M1205.287,931.673h-89.94c-.2,0-.36-.522-.36-1.167l-4.175-12.621c0-.644.161-1.166.36-1.166h94.115c.2,0,.36.522.36,1.166v12.621C1205.647,931.151,1205.486,931.673,1205.287,931.673Zm-90.773-2.333h89.344V919.051l-92.45-.23Z" transform="translate(-1110.812 -916.719)"/></g><g transform="translate(128.419 312.934)"><path class="g" d="M900.1,827.58H630.41L576.494,676.362a21.1,21.1,0,0,1,1.344-3.149,21.37,21.37,0,0,1,19.034-11.541H828.08a20.044,20.044,0,0,1,18.931,13.459Z" transform="translate(-576.494 -661.671)"/></g><g transform="translate(127.779 311.768)"><path class="f" d="M899.664,827.957H629.977a1.167,1.167,0,0,1-1.1-.775l-52.946-148.5a8.462,8.462,0,0,1,.423-6.772l.018-.035a22.582,22.582,0,0,1,20.065-12.163H827.647a21.227,21.227,0,0,1,20.033,14.242l53.085,152.449a1.167,1.167,0,0,1-1.1,1.55ZM630.8,825.624H898.023l-52.546-150.9a18.892,18.892,0,0,0-17.83-12.676H596.44a20.259,20.259,0,0,0-18,10.916,19.713,19.713,0,0,0-1.142,2.6Z" transform="translate(-575.422 -659.715)"/></g><g transform="translate(0 38.371)"><g transform="translate(0 0.52)"><path class="d" d="M361.188,229.93l22.206-13.858-22.206-13.858Z" transform="translate(-361.188 -202.213)"/></g><g transform="translate(42.818 0.52)"><path class="d" d="M432.977,229.93l22.206-13.858-22.206-13.858Z" transform="translate(-432.977 -202.213)"/></g><g transform="translate(85.637 0.52)"><path class="d" d="M504.766,229.93l22.206-13.858-22.206-13.858Z" transform="translate(-504.766 -202.213)"/></g><g transform="translate(6.07)"><path class="d" d="M372.232,230.792a.868.868,0,0,1-.867-.867V202.208a.867.867,0,0,1,1.326-.735L394.9,215.331a.867.867,0,0,1,0,1.471L372.691,230.66A.865.865,0,0,1,372.232,230.792Zm.867-27.02v24.59l19.7-12.3Z" transform="translate(-371.365 -201.342)"/></g><g transform="translate(48.888)"><path class="d" d="M444.02,230.792a.868.868,0,0,1-.867-.867V202.208a.867.867,0,0,1,1.326-.735l22.206,13.858a.867.867,0,0,1,0,1.471L444.48,230.66A.865.865,0,0,1,444.02,230.792Zm.867-27.02v24.59l19.7-12.3Z" transform="translate(-443.153 -201.342)"/></g><g transform="translate(91.706)"><path class="d" d="M515.809,230.792a.868.868,0,0,1-.867-.867V202.208a.867.867,0,0,1,1.327-.735l22.205,13.858a.867.867,0,0,1,0,1.471L516.269,230.66A.867.867,0,0,1,515.809,230.792Zm.867-27.02v24.59l19.7-12.3Z" transform="translate(-514.942 -201.342)"/></g></g><g class="h" transform="translate(543.14 86.029)"><rect class="k" width="171.181" height="101.993"/><rect class="l" x="1.5" y="1.5" width="168.181" height="98.993"/></g><g transform="translate(588.352 133.595)"><path class="a" d="M1366.34,371.8l-18.727-10.811v21.622Z" transform="translate(-1347.613 -360.993)"/></g><path class="i" d="M398.988,576.607l-3.676-9.979,83.768.263" transform="translate(-374.959 -310.382)"/><g class="h" transform="translate(554.174 116.448)"><rect class="k" width="87.38" height="55.47"/><rect class="l" x="1.5" y="1.5" width="84.38" height="52.47"/></g><line class="h" x2="169.389" transform="translate(543.739 105.752)"/><g class="h" transform="translate(651.098 116.448)"><rect class="k" width="54.277" height="10.14" rx="5.07"/><rect class="l" x="1.5" y="1.5" width="51.277" height="7.14" rx="3.57"/></g><rect class="a" width="34.594" height="10.14" rx="5.07" transform="translate(651.098 116.448)"/><g class="h" transform="translate(651.098 137.324)"><rect class="k" width="54.277" height="10.14" rx="5.07"/><rect class="l" x="1.5" y="1.5" width="51.277" height="7.14" rx="3.57"/></g><rect class="a" width="42.348" height="10.14" rx="5.07" transform="translate(651.098 137.324)"/><g class="j" transform="translate(500.274)"><path class="f" d="M1241.539,142.875a3.286,3.286,0,1,1,.546-4.615A3.286,3.286,0,0,1,1241.539,142.875Z" transform="translate(-1214.583 -137.008)"/><path class="f" d="M1258.956,164.963a3.286,3.286,0,1,1,.546-4.615A3.287,3.287,0,0,1,1258.956,164.963Z" transform="translate(-1221.611 -145.922)"/><path class="f" d="M1276.372,187.052a3.286,3.286,0,1,1,.546-4.615A3.286,3.286,0,0,1,1276.372,187.052Z" transform="translate(-1228.64 -154.836)"/><path class="f" d="M1223.4,157.176a3.286,3.286,0,1,1,.546-4.615A3.286,3.286,0,0,1,1223.4,157.176Z" transform="translate(-1207.263 -142.78)"/><path class="f" d="M1240.818,179.264a3.286,3.286,0,1,1,.546-4.615A3.286,3.286,0,0,1,1240.818,179.264Z" transform="translate(-1214.292 -151.693)"/><path class="f" d="M1258.235,201.353a3.286,3.286,0,1,1,.546-4.615A3.286,3.286,0,0,1,1258.235,201.353Z" transform="translate(-1221.32 -160.607)"/><path class="f" d="M1205.265,171.477a3.286,3.286,0,1,1,.546-4.615A3.286,3.286,0,0,1,1205.265,171.477Z" transform="translate(-1199.944 -148.551)"/><path class="f" d="M1222.681,193.566a3.286,3.286,0,1,1,.546-4.615A3.286,3.286,0,0,1,1222.681,193.566Z" transform="translate(-1206.972 -157.465)"/><path class="f" d="M1240.1,215.654a3.286,3.286,0,1,1,.546-4.615A3.286,3.286,0,0,1,1240.1,215.654Z" transform="translate(-1214.001 -166.379)"/></g><circle class="i" cx="14.613" cy="14.613" r="14.613" transform="translate(233.583 155.217)"/><path class="i" d="M766.027,418.136l3.322,4.765,10.14-7.157" transform="translate(-524.562 -249.492)"/><circle class="i" cx="14.613" cy="14.613" r="14.613" transform="translate(249.091 198.758)"/><path class="i" d="M792.027,491.136l3.322,4.765,10.14-7.157" transform="translate(-535.054 -278.952)"/><path class="f" d="M1531.5,588.5a15.508,15.508,0,0,1,0,31.015" transform="translate(-833.47 -319.208)"/><circle class="b" cx="15.508" cy="15.508" r="15.508" transform="translate(682.523 269.292)"/><path class="f" d="M393.6,831.494a9.394,9.394,0,1,1-18.788,0" transform="translate(-366.687 -417.269)"/><circle class="b" cx="9.394" cy="9.394" r="9.394" transform="translate(8.125 404.831)"/><circle class="f" cx="17.149" cy="17.149" r="17.149" transform="translate(273.071 378.74)"/><circle class="h" cx="3.579" cy="3.579" r="3.579" transform="translate(554.287 92.743)"/><circle class="h" cx="3.579" cy="3.579" r="3.579" transform="translate(568.303 92.743)"/><circle class="h" cx="3.579" cy="3.579" r="3.579" transform="translate(582.319 92.743)"/><rect class="d" width="21.426" height="21.426" transform="translate(6.229 184.327)"/><rect class="f" width="21.426" height="21.426" transform="translate(6.229 220.968)"/><line class="b" x2="20.457" transform="translate(40.42 186.151)"/><line class="b" x2="29.631" transform="translate(40.42 195.04)"/><line class="b" x2="20.457" transform="translate(40.42 203.93)"/><line class="b" x2="20.457" transform="translate(40.42 221.082)"/><line class="b" x2="29.631" transform="translate(40.42 229.971)"/><line class="b" x2="20.457" transform="translate(40.42 238.86)"/></svg>