<svg xmlns="http://www.w3.org/2000/svg" width="366.344" height="326.234" viewBox="0 0 366.344 326.234"><defs><style>.a{fill:#00044c;}.b{fill:#00003e;}.c{fill:#00a1df;}</style></defs><g transform="translate(30.618 10.808)"><path class="a" d="M86.734,333.524A45.966,45.966,0,1,1,132.7,287.555,46.019,46.019,0,0,1,86.734,333.524Zm0-89.9a43.929,43.929,0,1,0,43.931,43.927A43.978,43.978,0,0,0,86.734,243.629Z" transform="translate(-40.768 -241.591)"/><g transform="translate(5.614 5.614)"><path class="a" d="M83.875,325.051A40.352,40.352,0,1,1,124.228,284.7,40.4,40.4,0,0,1,83.875,325.051Zm0-78.667A38.315,38.315,0,1,0,122.19,284.7,38.357,38.357,0,0,0,83.875,246.384Z" transform="translate(-43.523 -244.346)"/></g><g transform="translate(19.039 20.201)"><path class="a" d="M52.929,257.138a2.817,2.817,0,1,1,2.818-2.818A2.822,2.822,0,0,1,52.929,257.138Zm0-3.6a.779.779,0,1,0,.78.778A.78.78,0,0,0,52.929,253.542Z" transform="translate(-50.111 -251.504)"/></g><g transform="translate(11.507 42.627)"><path class="a" d="M54.267,269.189H48.852a2.442,2.442,0,0,1-2.437-2.439v-1.8a2.441,2.441,0,0,1,2.437-2.437h5.414a2.44,2.44,0,0,1,2.437,2.437v1.8A2.44,2.44,0,0,1,54.267,269.189Zm-5.414-4.642a.4.4,0,0,0-.4.4v1.8a.4.4,0,0,0,.4.4h5.414a.4.4,0,0,0,.4-.4v-1.8a.4.4,0,0,0-.4-.4Z" transform="translate(-46.415 -262.509)"/></g><g transform="translate(71.2 42.627)"><path class="a" d="M83.56,269.189H78.145a2.442,2.442,0,0,1-2.437-2.439v-1.8a2.441,2.441,0,0,1,2.437-2.437H83.56A2.44,2.44,0,0,1,86,264.946v1.8A2.44,2.44,0,0,1,83.56,269.189Zm-5.414-4.642a.4.4,0,0,0-.4.4v1.8a.4.4,0,0,0,.4.4H83.56a.4.4,0,0,0,.4-.4v-1.8a.4.4,0,0,0-.4-.4Z" transform="translate(-75.708 -262.509)"/></g><g transform="translate(42.627 10.796)"><path class="a" d="M65.026,257.18a3.345,3.345,0,0,1-3.34-3.342v-3.611a3.34,3.34,0,0,1,6.68,0v3.611A3.345,3.345,0,0,1,65.026,257.18Zm0-8.253a1.3,1.3,0,0,0-1.3,1.3v3.611a1.3,1.3,0,1,0,2.6,0v-3.611A1.3,1.3,0,0,0,65.026,248.927Z" transform="translate(-61.686 -246.889)"/></g><g transform="translate(68.068 20.201)"><path class="a" d="M76.987,257.138a2.817,2.817,0,1,1,2.818-2.818A2.821,2.821,0,0,1,76.987,257.138Zm0-3.6a.779.779,0,1,0,.78.778A.778.778,0,0,0,76.987,253.542Z" transform="translate(-74.171 -251.504)"/></g><g transform="translate(28.684 28.682)"><path class="a" d="M72.127,290.235a17.285,17.285,0,1,1,14.511-26.679,1.019,1.019,0,0,1-1.71,1.111,15.248,15.248,0,1,0,2.445,8.282,15.391,15.391,0,0,0-.4-3.5,1.019,1.019,0,0,1,1.985-.467,17.515,17.515,0,0,1,.456,3.967A17.306,17.306,0,0,1,72.127,290.235Z" transform="translate(-54.844 -255.666)"/></g><g transform="translate(48.38 31.116)"><path class="a" d="M68.038,272.31a1.019,1.019,0,0,1-.412-1.952l25.152-11.041,1.019-.778-.9.473a.217.217,0,0,0-.263-.106l-26.766,9.408a1.019,1.019,0,1,1-.677-1.922l26.795-9.419a2.256,2.256,0,0,1,1.606,4.212L68.446,272.225A1,1,0,0,1,68.038,272.31Z" transform="translate(-64.509 -256.86)"/></g><g transform="translate(19.039 64.942)"><path class="a" d="M52.929,279.1a2.818,2.818,0,1,1,2.818-2.818A2.822,2.822,0,0,1,52.929,279.1Zm0-3.6a.78.78,0,1,0,.78.78A.782.782,0,0,0,52.929,275.5Z" transform="translate(-50.111 -273.46)"/></g><g transform="translate(68.068 64.942)"><path class="a" d="M76.987,279.1a2.818,2.818,0,1,1,2.818-2.818A2.821,2.821,0,0,1,76.987,279.1Zm0-3.6a.78.78,0,1,0,.78.78A.78.78,0,0,0,76.987,275.5Z" transform="translate(-74.171 -273.46)"/></g><g transform="translate(39.588 39.588)"><path class="a" d="M66.573,273.775a6.378,6.378,0,1,1,6.38-6.38A6.387,6.387,0,0,1,66.573,273.775Zm0-10.719a4.341,4.341,0,1,0,4.343,4.338A4.345,4.345,0,0,0,66.573,263.056Z" transform="translate(-60.195 -261.018)"/></g></g><g transform="translate(280.672 270.741)"><g transform="translate(6.647 43.307)"><path class="a" d="M167.757,402.585a1.019,1.019,0,0,1-1.019-1.019V391.418a1.019,1.019,0,0,1,2.038,0v10.148A1.018,1.018,0,0,1,167.757,402.585Z" transform="translate(-166.738 -390.399)"/></g><g transform="translate(6.647)"><path class="a" d="M167.757,399.255a1.019,1.019,0,0,1-1.019-1.019V370.166a1.019,1.019,0,0,1,2.038,0v28.071A1.018,1.018,0,0,1,167.757,399.255Z" transform="translate(-166.738 -369.147)"/></g><g transform="translate(0 29.246)"><path class="a" d="M171.142,398.833a7.667,7.667,0,1,1,7.668-7.666A7.675,7.675,0,0,1,171.142,398.833Zm0-13.3a5.629,5.629,0,1,0,5.63,5.63A5.635,5.635,0,0,0,171.142,385.537Z" transform="translate(-163.476 -383.499)"/></g><g transform="translate(23.023)"><g transform="translate(6.649)"><path class="a" d="M179.056,381.482a1.017,1.017,0,0,1-1.019-1.019v-10.3a1.019,1.019,0,0,1,2.038,0v10.3A1.018,1.018,0,0,1,179.056,381.482Z" transform="translate(-178.037 -369.147)"/></g><g transform="translate(6.649 25.289)"><path class="a" d="M179.056,411.761a1.018,1.018,0,0,1-1.019-1.019V382.576a1.019,1.019,0,1,1,2.038,0v28.166A1.019,1.019,0,0,1,179.056,411.761Z" transform="translate(-178.037 -381.557)"/></g><g transform="translate(0 10.912)"><path class="a" d="M182.442,389.836a7.667,7.667,0,1,1,7.666-7.666A7.675,7.675,0,0,1,182.442,389.836Zm0-13.3a5.629,5.629,0,1,0,5.628,5.63A5.636,5.636,0,0,0,182.442,376.54Z" transform="translate(-174.774 -374.502)"/></g></g><g transform="translate(46.046)"><g transform="translate(6.647 43.723)"><path class="a" d="M190.353,402.373a1.019,1.019,0,0,1-1.019-1.019v-9.733a1.019,1.019,0,1,1,2.038,0v9.733A1.018,1.018,0,0,1,190.353,402.373Z" transform="translate(-189.334 -390.603)"/></g><g transform="translate(6.647)"><path class="a" d="M190.353,399.465a1.018,1.018,0,0,1-1.019-1.019v-28.28a1.019,1.019,0,0,1,2.038,0v28.28A1.017,1.017,0,0,1,190.353,399.465Z" transform="translate(-189.334 -369.147)"/></g><g transform="translate(0 29.246)"><path class="a" d="M193.738,398.833a7.667,7.667,0,1,1,7.668-7.666A7.675,7.675,0,0,1,193.738,398.833Zm0-13.3a5.629,5.629,0,1,0,5.63,5.63A5.635,5.635,0,0,0,193.738,385.537Z" transform="translate(-186.072 -383.499)"/></g></g></g><g transform="translate(120.293 108.504)"><path class="a" d="M271.091,325.773H146.262a1.019,1.019,0,0,1,0-2.038h123.81V296.29a4.726,4.726,0,0,0-4.72-4.72H91.531a4.725,4.725,0,0,0-4.72,4.72v27.445l7.263-.043a1.019,1.019,0,0,1,2.038,0v1.062a1.018,1.018,0,0,1-1.019,1.019h-9.3a1.018,1.018,0,0,1-1.019-1.019V296.29a6.766,6.766,0,0,1,6.757-6.757H265.353a6.766,6.766,0,0,1,6.757,6.757v28.464A1.018,1.018,0,0,1,271.091,325.773Z" transform="translate(-84.774 -289.533)"/><g transform="translate(0 21.77)"><path class="a" d="M265.353,430.828H91.531a6.765,6.765,0,0,1-6.757-6.757v-110.4a1.019,1.019,0,0,1,1.019-1.019h8.282V304.1a3.893,3.893,0,0,1,3.888-3.888h45.431a3.892,3.892,0,0,1,3.886,3.888v8.544H271.091a1.019,1.019,0,0,1,1.019,1.019v110.4A6.765,6.765,0,0,1,265.353,430.828ZM86.812,314.686V424.071a4.725,4.725,0,0,0,4.72,4.72H265.353a4.726,4.726,0,0,0,4.72-4.72V314.686H146.262a1.019,1.019,0,0,1-1.019-1.017l0-9.565a1.851,1.851,0,0,0-1.848-1.85H97.963a1.852,1.852,0,0,0-1.85,1.85v8.5a1.018,1.018,0,0,1-.569.913.936.936,0,0,1,.012.149,1.018,1.018,0,0,1-1.019,1.019Z" transform="translate(-84.774 -300.216)"/></g><g transform="translate(14.688 8.813)"><path class="a" d="M96.394,302.682a4.412,4.412,0,1,1,4.41-4.414A4.419,4.419,0,0,1,96.394,302.682Zm0-6.786a2.374,2.374,0,1,0,2.372,2.372A2.377,2.377,0,0,0,96.394,295.9Z" transform="translate(-91.982 -293.858)"/><g transform="translate(14.338)"><path class="a" d="M103.43,302.682a4.412,4.412,0,1,1,4.41-4.414A4.418,4.418,0,0,1,103.43,302.682Zm0-6.786a2.374,2.374,0,1,0,2.372,2.372A2.376,2.376,0,0,0,103.43,295.9Z" transform="translate(-99.018 -293.858)"/></g><g transform="translate(28.676)"><path class="a" d="M110.466,302.682a4.412,4.412,0,1,1,4.41-4.414A4.418,4.418,0,0,1,110.466,302.682Zm0-6.786a2.374,2.374,0,1,0,2.372,2.372A2.377,2.377,0,0,0,110.466,295.9Z" transform="translate(-106.054 -293.858)"/></g></g><g transform="translate(67.066 22.008)"><path class="a" d="M170.89,314.565h-53.2V304.221a3.892,3.892,0,0,1,3.886-3.888H167a3.894,3.894,0,0,1,3.888,3.888Zm-51.167-2.038h49.129v-8.306a1.852,1.852,0,0,0-1.85-1.85H121.571a1.851,1.851,0,0,0-1.848,1.85Z" transform="translate(-117.685 -300.333)"/></g><g transform="translate(123.733 22.008)"><path class="a" d="M198.7,314.565h-53.2V304.221a3.894,3.894,0,0,1,3.888-3.888H194.81a3.893,3.893,0,0,1,3.888,3.888Zm-51.167-2.038H196.66v-8.306a1.852,1.852,0,0,0-1.85-1.85H149.381a1.851,1.851,0,0,0-1.85,1.85Z" transform="translate(-145.493 -300.333)"/></g><g transform="translate(21.737 79.028)"><path class="a" d="M108.613,382.466H98.5a3.06,3.06,0,0,1-3.057-3.057V331.371a3.059,3.059,0,0,1,3.057-3.057h10.116a3.059,3.059,0,0,1,3.057,3.057V379.41A3.06,3.06,0,0,1,108.613,382.466ZM98.5,330.352a1.021,1.021,0,0,0-1.019,1.019V379.41a1.022,1.022,0,0,0,1.019,1.019h10.116a1.021,1.021,0,0,0,1.019-1.019V331.371a1.019,1.019,0,0,0-1.019-1.019Z" transform="translate(-95.441 -328.314)"/></g><g transform="translate(44.147 81.75)"><path class="a" d="M118.924,381.08h-8.74a3.749,3.749,0,0,1-3.745-3.743V333.4a3.751,3.751,0,0,1,3.745-3.746h8.74a3.749,3.749,0,0,1,3.743,3.746v43.941A3.747,3.747,0,0,1,118.924,381.08Zm-8.74-49.392a1.71,1.71,0,0,0-1.708,1.708v43.941a1.708,1.708,0,0,0,1.708,1.706h8.74a1.706,1.706,0,0,0,1.706-1.706V333.4a1.708,1.708,0,0,0-1.706-1.708Z" transform="translate(-106.438 -329.65)"/></g><g transform="translate(66.836 107.249)"><path class="a" d="M129.607,368.094h-8.4a3.642,3.642,0,0,1-3.635-3.637V345.8a3.642,3.642,0,0,1,3.635-3.638h8.4a3.642,3.642,0,0,1,3.637,3.638v18.656A3.642,3.642,0,0,1,129.607,368.094Zm-8.4-23.893a1.6,1.6,0,0,0-1.6,1.6v18.656a1.6,1.6,0,0,0,1.6,1.6h8.4a1.6,1.6,0,0,0,1.6-1.6V345.8a1.6,1.6,0,0,0-1.6-1.6Z" transform="translate(-117.572 -342.163)"/></g><g transform="translate(88.968 81.75)"><path class="a" d="M140.917,381.08h-8.742a3.747,3.747,0,0,1-3.741-3.743V333.4a3.749,3.749,0,0,1,3.741-3.746h8.742a3.749,3.749,0,0,1,3.743,3.746v43.941A3.747,3.747,0,0,1,140.917,381.08Zm-8.742-49.392a1.708,1.708,0,0,0-1.7,1.708v43.941a1.706,1.706,0,0,0,1.7,1.706h8.742a1.706,1.706,0,0,0,1.706-1.706V333.4a1.708,1.708,0,0,0-1.706-1.708Z" transform="translate(-128.433 -329.65)"/></g><g transform="translate(111.376 95.377)"><path class="a" d="M151.915,374.14h-8.74a3.748,3.748,0,0,1-3.745-3.743V340.08a3.748,3.748,0,0,1,3.745-3.743h8.74a3.747,3.747,0,0,1,3.743,3.743V370.4A3.747,3.747,0,0,1,151.915,374.14Zm-8.74-35.765a1.708,1.708,0,0,0-1.708,1.706V370.4a1.708,1.708,0,0,0,1.708,1.706h8.74a1.706,1.706,0,0,0,1.706-1.706V340.08a1.706,1.706,0,0,0-1.706-1.706Z" transform="translate(-139.429 -336.337)"/></g><g transform="translate(133.785 57.225)"><path class="a" d="M162.912,393.57h-8.74a3.748,3.748,0,0,1-3.745-3.743V321.358a3.749,3.749,0,0,1,3.745-3.743h8.74a3.749,3.749,0,0,1,3.743,3.743v68.468A3.747,3.747,0,0,1,162.912,393.57Zm-8.74-73.917a1.708,1.708,0,0,0-1.708,1.706v68.468a1.708,1.708,0,0,0,1.708,1.706h8.74a1.706,1.706,0,0,0,1.706-1.706V321.358a1.706,1.706,0,0,0-1.706-1.706Z" transform="translate(-150.426 -317.615)"/></g><g transform="translate(156.195 51.774)"><path class="a" d="M173.909,396.346h-8.74a3.749,3.749,0,0,1-3.745-3.743V318.685a3.751,3.751,0,0,1,3.745-3.745h8.74a3.749,3.749,0,0,1,3.743,3.745V392.6A3.747,3.747,0,0,1,173.909,396.346Zm-8.74-79.368a1.71,1.71,0,0,0-1.708,1.708V392.6a1.708,1.708,0,0,0,1.708,1.706h8.74a1.706,1.706,0,0,0,1.706-1.706V318.685a1.708,1.708,0,0,0-1.706-1.708Z" transform="translate(-161.423 -314.94)"/></g><g transform="translate(12.17 51.381)"><path class="a" d="M250.595,404.777H91.765a1.018,1.018,0,0,1-1.019-1.019V315.766a1.019,1.019,0,0,1,2.038,0v86.973H250.595a1.019,1.019,0,1,1,0,2.038Z" transform="translate(-90.746 -314.747)"/></g></g><g transform="translate(273.315 96.218)"><path class="a" d="M211.83,285.542H201.641a1.019,1.019,0,0,1,0-2.038H211.83a1.019,1.019,0,1,1,0,2.038Zm-20.378,0H181.263a1.019,1.019,0,0,1,0-2.038h10.189a1.019,1.019,0,0,1,0,2.038Zm-20.378,0H160.885a1.019,1.019,0,1,1,0-2.038h10.189a1.019,1.019,0,0,1,0,2.038Z" transform="translate(-159.866 -283.504)"/></g><g transform="translate(50.101 201.935)"><path class="a" d="M106.882,337.42H51.348a1.019,1.019,0,1,1,0-2.038h55.534a1.019,1.019,0,1,1,0,2.038Z" transform="translate(-50.329 -335.382)"/></g><g transform="translate(130.297 270.741)"><path class="a" d="M141.647,371.185H131.458a1.019,1.019,0,1,1,0-2.038h10.189a1.019,1.019,0,1,1,0,2.038Zm-20.378,0H111.08a1.019,1.019,0,1,1,0-2.038h10.189a1.019,1.019,0,1,1,0,2.038Zm-20.378,0H90.7a1.019,1.019,0,0,1,0-2.038h10.189a1.019,1.019,0,1,1,0,2.038Z" transform="translate(-89.683 -369.147)"/></g><g transform="translate(166.06 70.406)"><g transform="translate(19.801 16.849)"><path class="b" d="M126.835,287.333a1.021,1.021,0,0,1-.581-.183l-8.868-6.189a1.02,1.02,0,0,1,1.166-1.673l8.868,6.189a1.02,1.02,0,0,1-.585,1.856Z" transform="translate(-116.95 -279.105)"/></g><g transform="translate(14.336)"><path class="b" d="M115.287,282.406a1.018,1.018,0,0,1-1.019-1.019v-9.531a1.019,1.019,0,1,1,2.038,0v9.531A1.019,1.019,0,0,1,115.287,282.406Z" transform="translate(-114.268 -270.837)"/></g><g transform="translate(0 16.851)"><path class="b" d="M108.254,287.332a1.02,1.02,0,0,1-.585-1.856l8.868-6.189a1.02,1.02,0,0,1,1.168,1.673l-8.871,6.189A1.021,1.021,0,0,1,108.254,287.332Z" transform="translate(-107.233 -279.106)"/></g></g><g transform="translate(277.405 0)"><g transform="translate(9.898 25.538)"><path class="a" d="M171.731,255.289a.576.576,0,0,1-.367.734.92.92,0,0,1-.23.033h-.01a.77.77,0,0,1-.41-.116,1.01,1.01,0,0,1-.334-.369,2.8,2.8,0,0,1-.222-1.257.888.888,0,0,0-.124-.45.961.961,0,0,0-.316-.3,1.972,1.972,0,0,0-.587-.253h-1.237v2.276a.584.584,0,0,1-.587.577.576.576,0,0,1-.577-.577V249.4a.57.57,0,0,1,.577-.579h1.877a2.243,2.243,0,0,1,2.244,2.254,2.218,2.218,0,0,1-.817,1.72,1.638,1.638,0,0,1,.367.389,1.978,1.978,0,0,1,.344,1.131,2.689,2.689,0,0,0,.043.62A.561.561,0,0,1,171.731,255.289Zm-1.467-4.216a1.083,1.083,0,0,0-1.08-1.09h-1.29v2.16h1.29A1.076,1.076,0,0,0,170.264,251.073Z" transform="translate(-166.73 -248.819)"/><g transform="translate(6.236 2.099)"><path class="a" d="M170.513,254.326a2.615,2.615,0,0,1-.723-1.846,2.7,2.7,0,0,1,.723-1.836,2.45,2.45,0,0,1,1.8-.795,2.324,2.324,0,0,1,1.752.795,2.627,2.627,0,0,1,.734,1.836,2.546,2.546,0,0,1-.734,1.846,2.324,2.324,0,0,1-1.752.795A2.45,2.45,0,0,1,170.513,254.326Zm.418-1.846a1.7,1.7,0,0,0,.377,1.111,1.428,1.428,0,0,0,1.007.389,1.383,1.383,0,0,0,.966-.389,1.615,1.615,0,0,0,.408-1.111,1.59,1.59,0,0,0-.408-1.092,1.487,1.487,0,0,0-.966-.4,1.53,1.53,0,0,0-1.007.4A1.67,1.67,0,0,0,170.931,252.48Z" transform="translate(-169.79 -249.849)"/></g><g transform="translate(12.781 2.099)"><path class="a" d="M173.725,254.326A2.624,2.624,0,0,1,173,252.48a2.71,2.71,0,0,1,.723-1.836,2.455,2.455,0,0,1,1.8-.795,2.324,2.324,0,0,1,1.752.795,2.625,2.625,0,0,1,.732,1.836,2.545,2.545,0,0,1-.732,1.846,2.324,2.324,0,0,1-1.752.795A2.455,2.455,0,0,1,173.725,254.326Zm.42-1.846a1.7,1.7,0,0,0,.377,1.111,1.428,1.428,0,0,0,1.007.389,1.383,1.383,0,0,0,.966-.389,1.615,1.615,0,0,0,.408-1.111,1.59,1.59,0,0,0-.408-1.092,1.488,1.488,0,0,0-.966-.4,1.53,1.53,0,0,0-1.007.4A1.67,1.67,0,0,0,174.145,252.48Z" transform="translate(-173.002 -249.849)"/></g><g transform="translate(18.837)"><path class="a" d="M178.868,251.493a.592.592,0,0,1-.587.579h-.263V255a.576.576,0,0,1,.577.587.567.567,0,0,1-.577.577A1.167,1.167,0,0,1,176.854,255v-2.924h-.3a.575.575,0,0,1-.577-.579.567.567,0,0,1,.577-.575h.3V249.4a.579.579,0,0,1,.587-.579.569.569,0,0,1,.577.579v1.52h.263A.583.583,0,0,1,178.868,251.493Z" transform="translate(-175.974 -248.819)"/><g transform="translate(4.595 0.08)"><path class="a" d="M178.276,255.322l2.568-6.113a.584.584,0,0,1,.766-.3.565.565,0,0,1,.293.744l-2.57,6.124a.58.58,0,0,1-.534.346.485.485,0,0,1-.21-.043A.565.565,0,0,1,178.276,255.322Z" transform="translate(-178.229 -248.858)"/></g></g></g><g transform="translate(8.879 39.598)"><path class="a" d="M170.069,263.4a3.838,3.838,0,1,1,3.839-3.837A3.841,3.841,0,0,1,170.069,263.4Zm0-5.639a1.8,1.8,0,1,0,1.8,1.8A1.8,1.8,0,0,0,170.069,257.757Z" transform="translate(-166.23 -255.719)"/><g transform="translate(15.01 2.82)"><path class="a" d="M195.294,259.141h-20.68a1.019,1.019,0,0,1,0-2.038h20.68a1.019,1.019,0,0,1,0,2.038Z" transform="translate(-173.596 -257.103)"/><g transform="translate(26.078)"><path class="a" d="M195.335,259.141h-7.923a1.019,1.019,0,0,1,0-2.038h7.923a1.019,1.019,0,0,1,0,2.038Z" transform="translate(-186.393 -257.103)"/></g><g transform="translate(40.246)"><path class="a" d="M208.014,259.141H194.365a1.019,1.019,0,0,1,0-2.038h13.649a1.019,1.019,0,0,1,0,2.038Z" transform="translate(-193.346 -257.103)"/></g></g></g><g transform="translate(8.879 55.746)"><path class="a" d="M170.069,271.319a3.838,3.838,0,1,1,3.839-3.839A3.843,3.843,0,0,1,170.069,271.319Zm0-5.639a1.8,1.8,0,1,0,1.8,1.8A1.8,1.8,0,0,0,170.069,265.681Z" transform="translate(-166.23 -263.643)"/><g transform="translate(14.574 2.818)"><path class="a" d="M187.076,267.064H174.4a1.019,1.019,0,0,1,0-2.038h12.675a1.019,1.019,0,0,1,0,2.038Z" transform="translate(-173.382 -265.026)"/><g transform="translate(18.073)"><path class="a" d="M207.206,267.064H183.27a1.019,1.019,0,0,1,0-2.038h23.936a1.019,1.019,0,1,1,0,2.038Z" transform="translate(-182.251 -265.026)"/></g><g transform="translate(46.918)"><path class="a" d="M204.4,267.064h-6.979a1.019,1.019,0,0,1,0-2.038H204.4a1.019,1.019,0,0,1,0,2.038Z" transform="translate(-196.406 -265.026)"/></g></g></g><path class="a" d="M249.054,254.23a1.018,1.018,0,0,1-1.019-1.019V239.975a1.651,1.651,0,0,0-1.649-1.651H165.561a1.653,1.653,0,0,0-1.651,1.651v13.235a1.019,1.019,0,0,1-2.038,0V239.975a3.693,3.693,0,0,1,3.688-3.688h80.825a3.692,3.692,0,0,1,3.686,3.688v13.235A1.019,1.019,0,0,1,249.054,254.23Z" transform="translate(-161.873 -236.287)"/><g transform="translate(0 15.905)"><path class="a" d="M246.386,300.133H165.561a3.693,3.693,0,0,1-3.688-3.688V245.111a1.018,1.018,0,0,1,1.019-1.019h86.162a1.018,1.018,0,0,1,1.019,1.019v51.334A3.692,3.692,0,0,1,246.386,300.133Zm-82.476-54v50.315a1.654,1.654,0,0,0,1.651,1.651h80.825a1.652,1.652,0,0,0,1.649-1.651V246.13Z" transform="translate(-161.873 -244.092)"/></g><g transform="translate(7.85 5.117)"><path class="a" d="M168.879,240.375A1.577,1.577,0,1,1,167.3,238.8,1.576,1.576,0,0,1,168.879,240.375Z" transform="translate(-165.725 -238.798)"/><g transform="translate(6.667 0)"><circle class="a" cx="1.577" cy="1.577" r="1.577"/></g><g transform="translate(13.334 0)"><circle class="a" cx="1.577" cy="1.577" r="1.577"/></g></g></g><g transform="translate(320.494 206.06)"><path class="c" d="M192.975,357.27a5.075,5.075,0,0,1-3.6-1.488l-4.864-4.864a5.094,5.094,0,0,1,0-7.2l4.864-4.864a5.213,5.213,0,0,1,7.2,0l4.864,4.864a5.1,5.1,0,0,1,0,7.2l-4.864,4.864A5.08,5.08,0,0,1,192.975,357.27Zm0-17.873a3.033,3.033,0,0,0-2.16.895l-4.864,4.864a3.058,3.058,0,0,0,0,4.322l4.864,4.864a3.063,3.063,0,0,0,4.322,0L200,349.478a3.063,3.063,0,0,0,0-4.322l-4.864-4.864A3.038,3.038,0,0,0,192.975,339.4Z" transform="translate(-183.018 -337.406)"/></g><g transform="translate(346.429 206.016)"><path class="c" d="M205.7,357.293a5.075,5.075,0,0,1-3.6-1.488l-4.864-4.864a5.094,5.094,0,0,1,0-7.2l4.864-4.864a5.1,5.1,0,0,1,7.2,0l4.864,4.864a5.094,5.094,0,0,1,0,7.2l-4.864,4.864A5.08,5.08,0,0,1,205.7,357.293Zm0-17.871a3.05,3.05,0,0,0-2.162.893l-4.862,4.864a3.053,3.053,0,0,0,0,4.322l4.862,4.864a3.063,3.063,0,0,0,4.322,0l4.864-4.864a3.057,3.057,0,0,0,0-4.322l-4.864-4.864A3.045,3.045,0,0,0,205.7,339.421Z" transform="translate(-195.745 -337.384)"/></g><g transform="translate(85.329 273.712)"><path class="c" d="M73.151,381.674a5.535,5.535,0,1,1,5.533-5.535A5.541,5.541,0,0,1,73.151,381.674Zm0-9.031a3.5,3.5,0,1,0,3.495,3.5A3.5,3.5,0,0,0,73.151,372.643Z" transform="translate(-67.616 -370.605)"/></g><g transform="translate(133.859 44.114)"><path class="c" d="M96.966,269a5.534,5.534,0,1,1,5.533-5.535A5.541,5.541,0,0,1,96.966,269Zm0-9.029a3.5,3.5,0,1,0,3.495,3.495A3.5,3.5,0,0,0,96.966,259.973Z" transform="translate(-91.431 -257.935)"/></g><g transform="translate(245.049 65.393)"><path class="c" d="M151.53,279.446a5.535,5.535,0,1,1,5.533-5.535A5.541,5.541,0,0,1,151.53,279.446Zm0-9.031a3.5,3.5,0,1,0,3.495,3.5A3.5,3.5,0,0,0,151.53,270.415Z" transform="translate(-145.995 -268.377)"/></g><g transform="translate(40.681 248.8)"><path class="c" d="M52.71,372.362a3.037,3.037,0,0,1-2.16-.895L46.6,367.518a3.065,3.065,0,0,1,0-4.324l3.951-3.947a3.128,3.128,0,0,1,4.322,0l3.949,3.947a3.061,3.061,0,0,1,0,4.324l-3.949,3.949A3.038,3.038,0,0,1,52.71,372.362Zm0-11.974a1.006,1.006,0,0,0-.719.3l-3.951,3.947a1.02,1.02,0,0,0,0,1.443l3.949,3.949a1.04,1.04,0,0,0,1.439,0l3.951-3.949a1.022,1.022,0,0,0,0-1.443l-3.949-3.947A1.011,1.011,0,0,0,52.71,360.387Z" transform="translate(-45.706 -358.38)"/><g transform="translate(16.673)"><path class="c" d="M60.892,372.362a3.037,3.037,0,0,1-2.16-.895l-3.951-3.949a3.065,3.065,0,0,1,0-4.324l3.951-3.947a3.128,3.128,0,0,1,4.322,0L67,363.194a3.061,3.061,0,0,1,0,4.324l-3.949,3.949A3.038,3.038,0,0,1,60.892,372.362Zm0-11.974a1.006,1.006,0,0,0-.719.3l-3.951,3.947a1.02,1.02,0,0,0,0,1.443l3.949,3.949a1.04,1.04,0,0,0,1.439,0l3.951-3.949a1.018,1.018,0,0,0,0-1.443l-3.949-3.947A1.011,1.011,0,0,0,60.892,360.387Z" transform="translate(-53.888 -358.38)"/></g></g><g transform="translate(0 178.557)"><g transform="translate(10.189 7.451)"><path class="a" d="M82.407,329.6H72.518a1.019,1.019,0,0,1,0-2.038h9.889a1.019,1.019,0,0,1,0,2.038Zm-20.078,0H52.14a1.019,1.019,0,0,1,0-2.038H62.329a1.019,1.019,0,0,1,0,2.038Zm-20.378,0H31.762a1.019,1.019,0,0,1,0-2.038H41.951a1.019,1.019,0,0,1,0,2.038Z" transform="translate(-30.743 -327.566)"/></g><path class="a" d="M36.949,341.274a1.006,1.006,0,0,1-.626-.216l-10.189-7.951a1.021,1.021,0,0,1,.031-1.63L36.354,324.1a1.019,1.019,0,0,1,1.194,1.653l-9.091,6.578,9.119,7.118a1.02,1.02,0,0,1-.628,1.824Z" transform="translate(-25.743 -323.91)"/></g><g transform="translate(22.047 213.464)"><circle class="b" cx="3.309" cy="3.309" r="3.309"/></g><g transform="translate(251.789 283.579)"><circle class="b" cx="3.309" cy="3.309" r="3.309"/></g><g transform="translate(196.579 32.698)"><circle class="b" cx="3.309" cy="3.309" r="3.309"/></g><g transform="translate(337.723 175.837)"><circle class="a" cx="3.309" cy="3.309" r="3.309"/></g><g transform="translate(25.356 126.27)"><circle class="b" cx="3.309" cy="3.309" r="3.309"/></g><g transform="translate(52.713 296.521)"><circle class="b" cx="3.309" cy="3.309" r="3.309"/></g><g transform="translate(331.239 131.782)"><path class="a" d="M191.6,300.956a3.309,3.309,0,1,1-3.309,3.309A3.309,3.309,0,0,1,191.6,300.956Z" transform="translate(-188.291 -300.956)"/></g><g transform="translate(88.473 223.167)"><g transform="translate(14.108 12.005)"><path class="b" d="M83.418,358.139a1.025,1.025,0,0,1-.583-.181l-6.317-4.41a1.02,1.02,0,0,1,1.166-1.673L84,356.285a1.018,1.018,0,0,1-.585,1.854Z" transform="translate(-76.082 -351.692)"/></g><g transform="translate(10.214)"><path class="b" d="M75.19,354.631a1.019,1.019,0,0,1-1.019-1.019V346.82a1.019,1.019,0,0,1,2.038,0v6.792A1.019,1.019,0,0,1,75.19,354.631Z" transform="translate(-74.171 -345.801)"/></g><g transform="translate(0 12.006)"><path class="b" d="M70.18,358.139a1.018,1.018,0,0,1-.585-1.854l6.319-4.41a1.019,1.019,0,0,1,1.166,1.673l-6.319,4.41A1.023,1.023,0,0,1,70.18,358.139Z" transform="translate(-69.159 -351.693)"/></g></g><g transform="translate(216.357 31.68)"><path class="b" d="M132.934,320.794a1.018,1.018,0,0,1-1.019-1.019V309.586a1.019,1.019,0,0,1,2.038,0v10.189A1.019,1.019,0,0,1,132.934,320.794Zm0-20.378a1.018,1.018,0,0,1-1.019-1.019V289.208a1.019,1.019,0,1,1,2.038,0V299.4A1.019,1.019,0,0,1,132.934,300.416Zm0-20.378a1.018,1.018,0,0,1-1.019-1.019V268.83a1.019,1.019,0,0,1,2.038,0v10.189A1.019,1.019,0,0,1,132.934,280.038Zm0-20.378a1.018,1.018,0,0,1-1.019-1.019v-5.789a1.018,1.018,0,0,1,1.019-1.019h4.4a1.019,1.019,0,1,1,0,2.038h-3.381v4.77A1.019,1.019,0,0,1,132.934,259.66Zm45.156-5.789H167.9a1.019,1.019,0,1,1,0-2.038h10.189a1.019,1.019,0,1,1,0,2.038Zm-20.378,0H147.522a1.019,1.019,0,1,1,0-2.038h10.189a1.019,1.019,0,1,1,0,2.038Z" transform="translate(-131.915 -251.833)"/></g><g transform="translate(200.764 274.177)"><path class="a" d="M180.669,409.184H170.48a1.019,1.019,0,1,1,0-2.038h10.189a1.019,1.019,0,1,1,0,2.038Zm-20.378,0H150.1a1.019,1.019,0,1,1,0-2.038h10.189a1.019,1.019,0,0,1,0,2.038Zm-20.378,0H129.724a1.019,1.019,0,1,1,0-2.038h10.189a1.019,1.019,0,1,1,0,2.038Zm-14.631-5.747a1.019,1.019,0,0,1-1.019-1.019V392.23a1.019,1.019,0,0,1,2.038,0v10.189A1.018,1.018,0,0,1,125.282,403.438Zm0-20.378a1.019,1.019,0,0,1-1.019-1.019V371.852a1.019,1.019,0,0,1,2.038,0v10.189A1.018,1.018,0,0,1,125.282,383.06Z" transform="translate(-124.263 -370.833)"/></g><g transform="translate(74.993 110.045)"><path class="a" d="M103.55,344.042H93.362a1.019,1.019,0,1,1,0-2.038H103.55a1.019,1.019,0,1,1,0,2.038Zm-20.378,0H72.984a1.019,1.019,0,1,1,0-2.038H83.173a1.019,1.019,0,1,1,0,2.038Zm-19.61-.77a1.019,1.019,0,0,1-1.019-1.019V332.064a1.019,1.019,0,0,1,2.038,0v10.189A1.018,1.018,0,0,1,63.563,343.272Zm0-20.378a1.019,1.019,0,0,1-1.019-1.019V311.686a1.019,1.019,0,0,1,2.038,0v10.189A1.018,1.018,0,0,1,63.563,322.894Zm0-20.378a1.019,1.019,0,0,1-1.019-1.019V291.308a1.019,1.019,0,0,1,2.038,0V301.5A1.018,1.018,0,0,1,63.563,302.516Z" transform="translate(-62.544 -290.289)"/></g></svg>